<mxfile host="app.diagrams.net" modified="2023-04-17T11:23:51.441Z" agent="Mozilla/5.0 (Windows NT 10.0; Win64; x64) AppleWebKit/537.36 (KHTML, like Gecko) Chrome/112.0.0.0 Safari/537.36" etag="zFVNSO7DESoITZJKG6LC" version="21.1.8" type="device">
  <diagram name="Page-1" id="e7e014a7-5840-1c2e-5031-d8a46d1fe8dd">
    <mxGraphModel dx="2613" dy="862" grid="1" gridSize="10" guides="1" tooltips="1" connect="1" arrows="1" fold="1" page="1" pageScale="1" pageWidth="1169" pageHeight="826" background="none" math="0" shadow="0">
      <root>
        <mxCell id="0" />
        <mxCell id="1" parent="0" />
        <mxCell id="3" value="FrontEnd" style="swimlane;whiteSpace=wrap" parent="1" vertex="1">
          <mxGeometry x="-100" y="6" width="660" height="820" as="geometry" />
        </mxCell>
        <mxCell id="lOZafzMt9g_z6DRPFGNZ-45" style="edgeStyle=orthogonalEdgeStyle;rounded=0;orthogonalLoop=1;jettySize=auto;html=1;exitX=0.5;exitY=1;exitDx=0;exitDy=0;entryX=0.505;entryY=0.02;entryDx=0;entryDy=0;entryPerimeter=0;" parent="3" source="13" target="15" edge="1">
          <mxGeometry relative="1" as="geometry" />
        </mxCell>
        <mxCell id="13" value="" style="ellipse;shape=startState;fillColor=#000000;strokeColor=#ff0000;" parent="3" vertex="1">
          <mxGeometry x="219.44" y="20" width="30" height="30" as="geometry" />
        </mxCell>
        <mxCell id="15" value="Welcome Screen" style="" parent="3" vertex="1">
          <mxGeometry x="179.44" y="70" width="110" height="50" as="geometry" />
        </mxCell>
        <mxCell id="lOZafzMt9g_z6DRPFGNZ-59" value="" style="edgeStyle=orthogonalEdgeStyle;rounded=0;orthogonalLoop=1;jettySize=auto;html=1;" parent="3" source="lOZafzMt9g_z6DRPFGNZ-53" target="n0ihHmKOdmhdID7cy5Q--15" edge="1">
          <mxGeometry relative="1" as="geometry" />
        </mxCell>
        <mxCell id="lOZafzMt9g_z6DRPFGNZ-53" value="ATM Screen: Anzeige Sats" style="rounded=0;whiteSpace=wrap;html=1;" parent="3" vertex="1">
          <mxGeometry x="465" y="144" width="120" height="60" as="geometry" />
        </mxCell>
        <mxCell id="lOZafzMt9g_z6DRPFGNZ-64" value="Button für Auszahlung in Sats" style="rounded=0;whiteSpace=wrap;html=1;" parent="3" vertex="1">
          <mxGeometry x="465" y="384" width="120" height="60" as="geometry" />
        </mxCell>
        <mxCell id="n0ihHmKOdmhdID7cy5Q--17" value="ja" style="edgeStyle=orthogonalEdgeStyle;rounded=0;orthogonalLoop=1;jettySize=auto;html=1;" edge="1" parent="3" source="n0ihHmKOdmhdID7cy5Q--15" target="n0ihHmKOdmhdID7cy5Q--16">
          <mxGeometry relative="1" as="geometry" />
        </mxCell>
        <mxCell id="n0ihHmKOdmhdID7cy5Q--15" value="Button Abbrechen gedrückt" style="rhombus;whiteSpace=wrap;html=1;" vertex="1" parent="3">
          <mxGeometry x="454.44" y="220" width="141.12" height="120" as="geometry" />
        </mxCell>
        <mxCell id="n0ihHmKOdmhdID7cy5Q--20" style="edgeStyle=orthogonalEdgeStyle;rounded=0;orthogonalLoop=1;jettySize=auto;html=1;entryX=0;entryY=0.5;entryDx=0;entryDy=0;exitX=0;exitY=0.5;exitDx=0;exitDy=0;" edge="1" parent="3" source="n0ihHmKOdmhdID7cy5Q--16" target="13">
          <mxGeometry relative="1" as="geometry" />
        </mxCell>
        <mxCell id="n0ihHmKOdmhdID7cy5Q--16" value="Refund" style="whiteSpace=wrap;html=1;" vertex="1" parent="3">
          <mxGeometry x="90" y="250" width="120" height="60" as="geometry" />
        </mxCell>
        <mxCell id="n0ihHmKOdmhdID7cy5Q--47" style="edgeStyle=orthogonalEdgeStyle;rounded=0;orthogonalLoop=1;jettySize=auto;html=1;entryX=0;entryY=0.5;entryDx=0;entryDy=0;" edge="1" parent="3" source="n0ihHmKOdmhdID7cy5Q--37" target="13">
          <mxGeometry relative="1" as="geometry">
            <Array as="points">
              <mxPoint x="50" y="684" />
              <mxPoint x="50" y="35" />
            </Array>
          </mxGeometry>
        </mxCell>
        <mxCell id="n0ihHmKOdmhdID7cy5Q--37" value="Goodbye Screen" style="whiteSpace=wrap;html=1;rounded=0;" vertex="1" parent="3">
          <mxGeometry x="100" y="654" width="120" height="60" as="geometry" />
        </mxCell>
        <mxCell id="lOZafzMt9g_z6DRPFGNZ-73" value="QR Code wird&lt;br&gt;angezeigt im &lt;br&gt;Exchange Screen abgezeigt" style="rounded=0;whiteSpace=wrap;html=1;" parent="3" vertex="1">
          <mxGeometry x="465" y="554" width="124.44" height="70" as="geometry" />
        </mxCell>
        <mxCell id="4" value="BackEnd" style="swimlane;whiteSpace=wrap" parent="1" vertex="1">
          <mxGeometry x="560" y="6" width="609" height="820" as="geometry" />
        </mxCell>
        <mxCell id="n0ihHmKOdmhdID7cy5Q--29" style="edgeStyle=orthogonalEdgeStyle;rounded=0;orthogonalLoop=1;jettySize=auto;html=1;exitX=0.5;exitY=0;exitDx=0;exitDy=0;entryX=0;entryY=0.5;entryDx=0;entryDy=0;" edge="1" parent="4" source="lOZafzMt9g_z6DRPFGNZ-94" target="lOZafzMt9g_z6DRPFGNZ-95">
          <mxGeometry relative="1" as="geometry">
            <mxPoint x="200" y="384" as="targetPoint" />
          </mxGeometry>
        </mxCell>
        <mxCell id="lOZafzMt9g_z6DRPFGNZ-94" value="Fordere neue &#xa;lnurlw an" style="" parent="4" vertex="1">
          <mxGeometry x="270" y="389" width="110" height="50" as="geometry" />
        </mxCell>
        <mxCell id="n0ihHmKOdmhdID7cy5Q--45" style="edgeStyle=orthogonalEdgeStyle;rounded=0;orthogonalLoop=1;jettySize=auto;html=1;exitX=0.5;exitY=1;exitDx=0;exitDy=0;entryX=0.5;entryY=0;entryDx=0;entryDy=0;" edge="1" parent="4" source="lOZafzMt9g_z6DRPFGNZ-95" target="lOZafzMt9g_z6DRPFGNZ-96">
          <mxGeometry relative="1" as="geometry" />
        </mxCell>
        <mxCell id="lOZafzMt9g_z6DRPFGNZ-95" value="erstelle lnurlw link &#xa;mit API Abfrage" style="" parent="4" vertex="1">
          <mxGeometry x="450" y="254" width="120" height="67" as="geometry" />
        </mxCell>
        <mxCell id="lOZafzMt9g_z6DRPFGNZ-96" value="QR Code wird erstellt" style="" parent="4" vertex="1">
          <mxGeometry x="450" y="354" width="120" height="67" as="geometry" />
        </mxCell>
        <mxCell id="n0ihHmKOdmhdID7cy5Q--27" value="ja" style="edgeStyle=orthogonalEdgeStyle;rounded=0;orthogonalLoop=1;jettySize=auto;html=1;entryX=0;entryY=0.5;entryDx=0;entryDy=0;" edge="1" parent="4" source="n0ihHmKOdmhdID7cy5Q--24" target="lOZafzMt9g_z6DRPFGNZ-94">
          <mxGeometry relative="1" as="geometry" />
        </mxCell>
        <mxCell id="n0ihHmKOdmhdID7cy5Q--24" value="Balance ausreichend" style="rhombus;whiteSpace=wrap;html=1;" vertex="1" parent="4">
          <mxGeometry x="90" y="354" width="141.12" height="120" as="geometry" />
        </mxCell>
        <mxCell id="n0ihHmKOdmhdID7cy5Q--32" value="Überprüfe, ob withdraw durchgeführt wurde" style="rhombus;whiteSpace=wrap;html=1;rounded=0;" vertex="1" parent="4">
          <mxGeometry x="220" y="614" width="160" height="140" as="geometry" />
        </mxCell>
        <mxCell id="n0ihHmKOdmhdID7cy5Q--35" value="nein" style="edgeStyle=orthogonalEdgeStyle;rounded=0;orthogonalLoop=1;jettySize=auto;html=1;exitX=1;exitY=0.5;exitDx=0;exitDy=0;" edge="1" parent="4" source="n0ihHmKOdmhdID7cy5Q--32" target="n0ihHmKOdmhdID7cy5Q--32">
          <mxGeometry relative="1" as="geometry" />
        </mxCell>
        <mxCell id="n0ihHmKOdmhdID7cy5Q--42" style="edgeStyle=orthogonalEdgeStyle;rounded=0;orthogonalLoop=1;jettySize=auto;html=1;entryX=0.5;entryY=0;entryDx=0;entryDy=0;" edge="1" parent="4" source="lOZafzMt9g_z6DRPFGNZ-88" target="lOZafzMt9g_z6DRPFGNZ-41">
          <mxGeometry relative="1" as="geometry" />
        </mxCell>
        <mxCell id="lOZafzMt9g_z6DRPFGNZ-88" value="get Bitcoin Price von API" style="rounded=0;whiteSpace=wrap;html=1;" parent="4" vertex="1">
          <mxGeometry x="200" y="65" width="120" height="60" as="geometry" />
        </mxCell>
        <mxCell id="lOZafzMt9g_z6DRPFGNZ-41" value="Münzeingabe in &#xa;sats umrechen" style="" parent="4" vertex="1">
          <mxGeometry x="205" y="149" width="110" height="50" as="geometry" />
        </mxCell>
        <mxCell id="n0ihHmKOdmhdID7cy5Q--44" value="ja" style="edgeStyle=orthogonalEdgeStyle;rounded=0;orthogonalLoop=1;jettySize=auto;html=1;entryX=1;entryY=0.5;entryDx=0;entryDy=0;" edge="1" parent="4" source="lOZafzMt9g_z6DRPFGNZ-58" target="lOZafzMt9g_z6DRPFGNZ-88">
          <mxGeometry relative="1" as="geometry" />
        </mxCell>
        <mxCell id="lOZafzMt9g_z6DRPFGNZ-58" value="Warten auf weitere Münzeingabe." style="rhombus;whiteSpace=wrap;html=1;" parent="4" vertex="1">
          <mxGeometry x="50" y="220" width="141.12" height="120" as="geometry" />
        </mxCell>
        <mxCell id="n0ihHmKOdmhdID7cy5Q--41" value="ja" style="edgeStyle=orthogonalEdgeStyle;rounded=0;orthogonalLoop=1;jettySize=auto;html=1;entryX=0;entryY=0.5;entryDx=0;entryDy=0;" edge="1" parent="4" source="lOZafzMt9g_z6DRPFGNZ-42" target="lOZafzMt9g_z6DRPFGNZ-88">
          <mxGeometry relative="1" as="geometry" />
        </mxCell>
        <mxCell id="lOZafzMt9g_z6DRPFGNZ-42" value="Münzeingabe festgestellt" style="rhombus;whiteSpace=wrap;html=1;" parent="4" vertex="1">
          <mxGeometry x="40" y="41" width="115" height="108" as="geometry" />
        </mxCell>
        <mxCell id="n0ihHmKOdmhdID7cy5Q--26" style="edgeStyle=orthogonalEdgeStyle;rounded=0;orthogonalLoop=1;jettySize=auto;html=1;exitX=1;exitY=0.5;exitDx=0;exitDy=0;entryX=0;entryY=0.5;entryDx=0;entryDy=0;" edge="1" parent="1" source="lOZafzMt9g_z6DRPFGNZ-64" target="n0ihHmKOdmhdID7cy5Q--24">
          <mxGeometry relative="1" as="geometry" />
        </mxCell>
        <mxCell id="n0ihHmKOdmhdID7cy5Q--28" value="nein" style="edgeStyle=orthogonalEdgeStyle;rounded=0;orthogonalLoop=1;jettySize=auto;html=1;entryX=0.5;entryY=1;entryDx=0;entryDy=0;exitX=0.5;exitY=1;exitDx=0;exitDy=0;" edge="1" parent="1" source="n0ihHmKOdmhdID7cy5Q--24" target="n0ihHmKOdmhdID7cy5Q--16">
          <mxGeometry relative="1" as="geometry" />
        </mxCell>
        <mxCell id="n0ihHmKOdmhdID7cy5Q--38" value="ja" style="edgeStyle=orthogonalEdgeStyle;rounded=0;orthogonalLoop=1;jettySize=auto;html=1;" edge="1" parent="1" source="n0ihHmKOdmhdID7cy5Q--32" target="n0ihHmKOdmhdID7cy5Q--37">
          <mxGeometry relative="1" as="geometry" />
        </mxCell>
        <mxCell id="n0ihHmKOdmhdID7cy5Q--23" value="nein" style="edgeStyle=orthogonalEdgeStyle;rounded=0;orthogonalLoop=1;jettySize=auto;html=1;entryX=0.5;entryY=0;entryDx=0;entryDy=0;exitX=0.5;exitY=1;exitDx=0;exitDy=0;" edge="1" parent="1" source="lOZafzMt9g_z6DRPFGNZ-58" target="lOZafzMt9g_z6DRPFGNZ-64">
          <mxGeometry relative="1" as="geometry" />
        </mxCell>
        <mxCell id="n0ihHmKOdmhdID7cy5Q--21" value="nein" style="edgeStyle=orthogonalEdgeStyle;rounded=0;orthogonalLoop=1;jettySize=auto;html=1;" edge="1" parent="1" source="n0ihHmKOdmhdID7cy5Q--15" target="lOZafzMt9g_z6DRPFGNZ-58">
          <mxGeometry relative="1" as="geometry" />
        </mxCell>
        <mxCell id="n0ihHmKOdmhdID7cy5Q--33" value="" style="edgeStyle=orthogonalEdgeStyle;rounded=0;orthogonalLoop=1;jettySize=auto;html=1;entryX=0.5;entryY=0;entryDx=0;entryDy=0;" edge="1" parent="1" source="lOZafzMt9g_z6DRPFGNZ-73" target="n0ihHmKOdmhdID7cy5Q--32">
          <mxGeometry relative="1" as="geometry" />
        </mxCell>
        <mxCell id="n0ihHmKOdmhdID7cy5Q--40" style="edgeStyle=orthogonalEdgeStyle;rounded=0;orthogonalLoop=1;jettySize=auto;html=1;entryX=0;entryY=0.5;entryDx=0;entryDy=0;" edge="1" parent="1" source="15" target="lOZafzMt9g_z6DRPFGNZ-42">
          <mxGeometry relative="1" as="geometry" />
        </mxCell>
        <mxCell id="n0ihHmKOdmhdID7cy5Q--43" style="edgeStyle=orthogonalEdgeStyle;rounded=0;orthogonalLoop=1;jettySize=auto;html=1;entryX=1;entryY=0.5;entryDx=0;entryDy=0;" edge="1" parent="1" source="lOZafzMt9g_z6DRPFGNZ-41" target="lOZafzMt9g_z6DRPFGNZ-53">
          <mxGeometry relative="1" as="geometry" />
        </mxCell>
        <mxCell id="n0ihHmKOdmhdID7cy5Q--46" style="edgeStyle=orthogonalEdgeStyle;rounded=0;orthogonalLoop=1;jettySize=auto;html=1;" edge="1" parent="1" source="lOZafzMt9g_z6DRPFGNZ-96" target="lOZafzMt9g_z6DRPFGNZ-73">
          <mxGeometry relative="1" as="geometry">
            <Array as="points">
              <mxPoint x="1070" y="530" />
              <mxPoint x="427" y="530" />
            </Array>
          </mxGeometry>
        </mxCell>
        <mxCell id="n0ihHmKOdmhdID7cy5Q--48" value="nein" style="edgeStyle=orthogonalEdgeStyle;rounded=0;orthogonalLoop=1;jettySize=auto;html=1;exitX=0.5;exitY=0;exitDx=0;exitDy=0;" edge="1" parent="1" source="lOZafzMt9g_z6DRPFGNZ-42">
          <mxGeometry relative="1" as="geometry">
            <mxPoint x="134" y="41" as="targetPoint" />
            <Array as="points">
              <mxPoint x="400" y="47" />
              <mxPoint x="400" y="61" />
              <mxPoint x="134" y="61" />
            </Array>
          </mxGeometry>
        </mxCell>
      </root>
    </mxGraphModel>
  </diagram>
</mxfile>
